<svg width="8" height="9" viewBox="0 0 8 9" fill="none" xmlns="http://www.w3.org/2000/svg">
<path d="M4 0.96875C2.9145 0.96875 2.778 0.97375 2.3515 0.99275C1.925 1.01275 1.6345 1.07975 1.38 1.17875C1.11305 1.27916 0.871246 1.43666 0.6715 1.64025C0.468038 1.8401 0.310554 2.08187 0.21 2.34875C0.111 2.60275 0.0435 2.89375 0.024 3.31875C0.005 3.74625 0 3.88225 0 4.96925C0 6.05525 0.005 6.19125 0.024 6.61775C0.044 7.04375 0.111 7.33425 0.21 7.58875C0.3125 7.85175 0.449 8.07475 0.6715 8.29725C0.8935 8.51975 1.1165 8.65675 1.3795 8.75875C1.6345 8.85775 1.9245 8.92525 2.3505 8.94475C2.7775 8.96375 2.9135 8.96875 4 8.96875C5.0865 8.96875 5.222 8.96375 5.649 8.94475C6.0745 8.92475 6.366 8.85775 6.6205 8.75875C6.88728 8.65829 7.12891 8.50079 7.3285 8.29725C7.551 8.07475 7.6875 7.85175 7.79 7.58875C7.8885 7.33425 7.956 7.04375 7.976 6.61775C7.995 6.19125 8 6.05525 8 4.96875C8 3.88225 7.995 3.74625 7.976 3.31925C7.956 2.89375 7.8885 2.60275 7.79 2.34875C7.68946 2.08186 7.53197 1.84009 7.3285 1.64025C7.12882 1.43659 6.887 1.27907 6.62 1.17875C6.365 1.07975 6.074 1.01225 5.6485 0.99275C5.2215 0.97375 5.086 0.96875 3.999 0.96875H4.0005H4ZM3.6415 1.68975H4.0005C5.0685 1.68975 5.195 1.69325 5.6165 1.71275C6.0065 1.73025 6.2185 1.79575 6.3595 1.85025C6.546 1.92275 6.6795 2.00975 6.8195 2.14975C6.9595 2.28975 7.046 2.42275 7.1185 2.60975C7.1735 2.75025 7.2385 2.96225 7.256 3.35225C7.2755 3.77375 7.2795 3.90025 7.2795 4.96775C7.2795 6.03525 7.2755 6.16225 7.256 6.58375C7.2385 6.97375 7.173 7.18525 7.1185 7.32625C7.05437 7.49993 6.95201 7.65697 6.819 7.78575C6.679 7.92575 6.546 8.01225 6.359 8.08475C6.219 8.13975 6.007 8.20475 5.6165 8.22275C5.195 8.24175 5.0685 8.24625 4.0005 8.24625C2.9325 8.24625 2.8055 8.24175 2.384 8.22275C1.994 8.20475 1.7825 8.13975 1.6415 8.08475C1.46775 8.02071 1.31056 7.91854 1.1815 7.78575C1.04838 7.65677 0.945862 7.49958 0.8815 7.32575C0.827 7.18525 0.7615 6.97325 0.744 6.58325C0.725 6.16175 0.721 6.03525 0.721 4.96675C0.721 3.89875 0.725 3.77275 0.744 3.35125C0.762 2.96125 0.827 2.74925 0.882 2.60825C0.9545 2.42175 1.0415 2.28825 1.1815 2.14825C1.3215 2.00825 1.4545 1.92175 1.6415 1.84925C1.7825 1.79425 1.994 1.72925 2.384 1.71125C2.753 1.69425 2.896 1.68925 3.6415 1.68875V1.68975ZM6.1355 2.35375C6.07247 2.35375 6.01005 2.36617 5.95181 2.39029C5.89358 2.41441 5.84066 2.44977 5.79609 2.49434C5.75152 2.53891 5.71616 2.59183 5.69204 2.65006C5.66792 2.7083 5.6555 2.77072 5.6555 2.83375C5.6555 2.89678 5.66792 2.9592 5.69204 3.01744C5.71616 3.07567 5.75152 3.12859 5.79609 3.17316C5.84066 3.21773 5.89358 3.25309 5.95181 3.27721C6.01005 3.30133 6.07247 3.31375 6.1355 3.31375C6.2628 3.31375 6.38489 3.26318 6.47491 3.17316C6.56493 3.08314 6.6155 2.96105 6.6155 2.83375C6.6155 2.70645 6.56493 2.58436 6.47491 2.49434C6.38489 2.40432 6.2628 2.35375 6.1355 2.35375ZM4.0005 2.91475C3.72804 2.9105 3.45745 2.96049 3.20449 3.06182C2.95153 3.16315 2.72126 3.31379 2.52708 3.50496C2.33289 3.69614 2.17868 3.92403 2.07342 4.17538C1.96816 4.42673 1.91395 4.6965 1.91395 4.969C1.91395 5.2415 1.96816 5.51127 2.07342 5.76262C2.17868 6.01397 2.33289 6.24186 2.52708 6.43304C2.72126 6.62421 2.95153 6.77485 3.20449 6.87618C3.45745 6.97751 3.72804 7.0275 4.0005 7.02325C4.53977 7.01484 5.05411 6.79471 5.43249 6.41038C5.81087 6.02604 6.02295 5.50834 6.02295 4.969C6.02295 4.42966 5.81087 3.91196 5.43249 3.52762C5.05411 3.14329 4.53977 2.92316 4.0005 2.91475ZM4.0005 3.63525C4.35417 3.63525 4.69335 3.77574 4.94343 4.02582C5.19351 4.2759 5.334 4.61508 5.334 4.96875C5.334 5.32242 5.19351 5.6616 4.94343 5.91168C4.69335 6.16176 4.35417 6.30225 4.0005 6.30225C3.64683 6.30225 3.30765 6.16176 3.05757 5.91168C2.80749 5.6616 2.667 5.32242 2.667 4.96875C2.667 4.61508 2.80749 4.2759 3.05757 4.02582C3.30765 3.77574 3.64683 3.63525 4.0005 3.63525Z" fill="black"/>
</svg>
