<svg width="8" height="8" viewBox="0 0 8 8" fill="none" xmlns="http://www.w3.org/2000/svg">
<path d="M2.513 7.46873C5.532 7.46873 7.1835 4.96723 7.1835 2.80173C7.1835 2.73173 7.1835 2.66073 7.1805 2.59073C7.50203 2.35797 7.77953 2.06981 8 1.73973C7.69966 1.87216 7.38138 1.95943 7.0555 1.99873C7.39877 1.79355 7.65586 1.47071 7.779 1.09023C7.45649 1.28129 7.10351 1.41542 6.7355 1.48673C6.48809 1.22324 6.1607 1.04869 5.80404 0.990109C5.44738 0.931529 5.08136 0.992191 4.76267 1.1627C4.44398 1.33321 4.1904 1.60404 4.04122 1.93326C3.89205 2.26248 3.85559 2.6317 3.9375 2.98373C3.28487 2.95101 2.64641 2.78146 2.06352 2.4861C1.48063 2.19074 0.966342 1.77615 0.554 1.26923C0.34467 1.63077 0.280787 2.05843 0.375323 2.46536C0.469859 2.8723 0.715727 3.228 1.063 3.46023C0.80277 3.45139 0.54826 3.38151 0.32 3.25623V3.27873C0.320449 3.65747 0.451654 4.02444 0.691437 4.31761C0.93122 4.61078 1.26487 4.81217 1.636 4.88773C1.49513 4.92654 1.34961 4.94588 1.2035 4.94523C1.10049 4.94554 0.99769 4.936 0.8965 4.91673C1.00139 5.24276 1.20564 5.52781 1.48062 5.73197C1.75561 5.93612 2.08757 6.04916 2.43 6.05523C1.84828 6.51213 1.1297 6.75993 0.39 6.75873C0.25966 6.75928 0.129412 6.75177 0 6.73623C0.750757 7.21486 1.62265 7.46901 2.513 7.46873Z" fill="black"/>
</svg>
